<svg width="56" height="56" viewBox="0 0 56 56" fill="none" xmlns="http://www.w3.org/2000/svg">
<rect width="56" height="56" rx="28" fill="#1E3442"/>
<g clip-path="url(#clip0_202_2340)">
<path d="M38 21.8125C37.25 22.125 36.5 22.375 35.625 22.4375C36.5 21.9375 37.125 21.125 37.4375 20.1875C36.625 20.6875 35.75 21 34.8125 21.1875C34.0625 20.375 33 19.875 31.875 19.875C29.625 19.875 27.75 21.6875 27.75 24C27.75 24.3125 27.8125 24.625 27.875 24.9375C24.4375 24.75 21.4375 23.125 19.375 20.625C19 21.25 18.8125 21.9375 18.8125 22.6875C18.8125 24.125 19.5625 25.375 20.625 26.125C19.9375 26.125 19.3125 25.9375 18.75 25.625V25.6875C18.75 27.6875 20.1875 29.3125 22.0625 29.6875C21.6875 29.75 21.375 29.8125 21 29.8125C20.75 29.8125 20.5 29.8125 20.25 29.75C20.75 31.375 22.3125 32.5625 24.0625 32.625C22.6875 33.75 20.875 34.375 18.9375 34.375C18.625 34.375 18.25 34.375 17.9375 34.3125C19.8125 35.4375 22 36.125 24.3125 36.125C31.875 36.125 36 29.875 36 24.4375C36 24.25 36 24.0625 36 23.9375C36.75 23.3125 37.4375 22.625 38 21.8125Z" fill="#1EA1F1"/>
</g>
<defs>
<clipPath id="clip0_202_2340">
<rect width="20" height="20" fill="white" transform="translate(18 18)"/>
</clipPath>
</defs>
</svg>
